<svg width="64" height="64" viewBox="0 0 64 64" fill="none" xmlns="http://www.w3.org/2000/svg">
<circle cx="32" cy="32" r="31" fill="white" stroke="#EFEFEF" stroke-width="2"/>
<path d="M16.8999 24.928C16.8999 25.7564 17.5715 26.428 18.3999 26.428C19.2283 26.428 19.8999 25.7564 19.8999 24.928H16.8999ZM24.9279 19.9C25.7563 19.9 26.4279 19.2284 26.4279 18.4C26.4279 17.5716 25.7563 16.9 24.9279 16.9V19.9ZM39.0719 16.9C38.2435 16.9 37.5719 17.5716 37.5719 18.4C37.5719 19.2284 38.2435 19.9 39.0719 19.9V16.9ZM40.1599 18.4V16.9V18.4ZM45.5999 23.84H44.0999H45.5999ZM44.0999 24.928C44.0999 25.7564 44.7715 26.428 45.5999 26.428C46.4283 26.428 47.0999 25.7564 47.0999 24.928H44.0999ZM24.3566 42.8526C24.9423 42.2669 24.9423 41.3171 24.3566 40.7313C23.7708 40.1455 22.821 40.1455 22.2352 40.7313L24.3566 42.8526ZM18.4272 44.5393C17.8415 45.1251 17.8415 46.0749 18.4272 46.6607C19.013 47.2464 19.9628 47.2464 20.5486 46.6606L18.4272 44.5393ZM43.4512 46.6606C44.037 47.2464 44.9868 47.2464 45.5726 46.6607C46.1583 46.0749 46.1583 45.1251 45.5726 44.5393L43.4512 46.6606ZM41.7646 40.7313C41.1788 40.1455 40.229 40.1455 39.6432 40.7313C39.0575 41.3171 39.0575 42.2669 39.6432 42.8526L41.7646 40.7313ZM33.4999 28.6C33.4999 27.7716 32.8283 27.1 31.9999 27.1C31.1715 27.1 30.4999 27.7716 30.4999 28.6H33.4999ZM30.4999 37.1C30.4999 37.9284 31.1715 38.6 31.9999 38.6C32.8283 38.6 33.4999 37.9284 33.4999 37.1H30.4999ZM36.2499 34.35C37.0783 34.35 37.7499 33.6784 37.7499 32.85C37.7499 32.0216 37.0783 31.35 36.2499 31.35V34.35ZM27.7499 31.35C26.9215 31.35 26.2499 32.0216 26.2499 32.85C26.2499 33.6784 26.9215 34.35 27.7499 34.35V31.35ZM19.8999 24.928V23.84H16.8999V24.928H19.8999ZM23.8399 19.9H24.9279V16.9H23.8399V19.9ZM19.8999 23.84C19.8999 21.664 21.6639 19.9 23.8399 19.9V16.9C20.007 16.9 16.8999 20.0071 16.8999 23.84H19.8999ZM39.0719 19.9H40.1599V16.9H39.0719V19.9ZM44.0999 23.84V24.928H47.0999V23.84H44.0999ZM40.1599 19.9C42.3359 19.9 44.0999 21.664 44.0999 23.84H47.0999C47.0999 20.0071 43.9928 16.9 40.1599 16.9V19.9ZM22.2352 40.7313L18.4272 44.5393L20.5486 46.6606L24.3566 42.8526L22.2352 40.7313ZM45.5726 44.5393L41.7646 40.7313L39.6432 42.8526L43.4512 46.6606L45.5726 44.5393ZM42.4679 33.088C42.4679 38.8693 37.7812 43.556 31.9999 43.556V46.556C39.4381 46.556 45.4679 40.5262 45.4679 33.088H42.4679ZM31.9999 43.556C26.2186 43.556 21.5319 38.8693 21.5319 33.088H18.5319C18.5319 40.5262 24.5617 46.556 31.9999 46.556V43.556ZM21.5319 33.088C21.5319 27.3067 26.2186 22.62 31.9999 22.62V19.62C24.5617 19.62 18.5319 25.6498 18.5319 33.088H21.5319ZM31.9999 22.62C37.7812 22.62 42.4679 27.3067 42.4679 33.088H45.4679C45.4679 25.6498 39.4381 19.62 31.9999 19.62V22.62ZM30.4999 28.6V32.85H33.4999V28.6H30.4999ZM30.4999 32.85V37.1H33.4999V32.85H30.4999ZM36.2499 31.35H31.9999V34.35H36.2499V31.35ZM31.9999 31.35H27.7499V34.35H31.9999V31.35Z" fill="#0C223F"/>
</svg>
