<svg width="64" height="64" viewBox="0 0 64 64" fill="none" xmlns="http://www.w3.org/2000/svg">
<circle cx="32" cy="32" r="31" fill="white" stroke="#EFEFEF" stroke-width="2"/>
<path d="M19.2002 45.8L19.2007 40.9995C19.201 38.3487 21.35 36.2 24.0007 36.2H33.6M37.6002 40.2L39.2002 41.8L44.8002 36.2M39.2002 20.2C41.1419 21.2884 42.4002 23.0332 42.4002 25C42.4002 26.9668 41.1419 28.7116 39.2002 29.8M35.2002 25C35.2002 27.651 33.0512 29.8 30.4002 29.8C27.7492 29.8 25.6002 27.651 25.6002 25C25.6002 22.349 27.7492 20.2 30.4002 20.2C33.0512 20.2 35.2002 22.349 35.2002 25Z" stroke="#0C223F" stroke-width="4" stroke-linecap="round" stroke-linejoin="round"/>
</svg>
